<svg id="choices" xmlns="http://www.w3.org/2000/svg" width="54.18" height="66.374" viewBox="0 0 54.18 66.374">
  <g id="Group_169" data-name="Group 169" transform="translate(6.651 9.977)">
    <g id="Group_168" data-name="Group 168" transform="translate(0)">
      <path id="Path_352" data-name="Path 352" d="M106.029,80.286a1.039,1.039,0,0,0-1.039,1.039,2.286,2.286,0,1,1-2.286-2.286,1.039,1.039,0,0,0,0-2.079,4.365,4.365,0,1,0,4.365,4.365A1.039,1.039,0,0,0,106.029,80.286Z" transform="translate(-98.338 -76.96)" fill="rgba(255,255,255,0.51)"/>
    </g>
  </g>
  <g id="Group_171" data-name="Group 171" transform="translate(6.651 22.171)">
    <g id="Group_170" data-name="Group 170" transform="translate(0)">
      <path id="Path_353" data-name="Path 353" d="M106.029,174.348a1.039,1.039,0,0,0-1.039,1.039A2.286,2.286,0,1,1,102.7,173.1a1.039,1.039,0,0,0,0-2.079,4.365,4.365,0,1,0,4.365,4.365A1.039,1.039,0,0,0,106.029,174.348Z" transform="translate(-98.338 -171.022)" fill="rgba(255,255,255,0.51)"/>
    </g>
  </g>
  <g id="Group_173" data-name="Group 173" transform="translate(17.736 27.713)">
    <g id="Group_172" data-name="Group 172" transform="translate(0)">
      <path id="Path_354" data-name="Path 354" d="M192.648,213.779h-7.76a1.039,1.039,0,0,0,0,2.079h7.76a1.039,1.039,0,1,0,0-2.079Z" transform="translate(-183.849 -213.779)" fill="rgba(255,255,255,0.51)"/>
    </g>
  </g>
  <g id="Group_175" data-name="Group 175" transform="translate(17.736 23.279)">
    <g id="Group_174" data-name="Group 174" transform="translate(0)">
      <path id="Path_355" data-name="Path 355" d="M192.648,179.574h-7.76a1.039,1.039,0,0,0,0,2.079h7.76a1.039,1.039,0,0,0,0-2.079Z" transform="translate(-183.849 -179.574)" fill="rgba(255,255,255,0.51)"/>
    </g>
  </g>
  <g id="Group_177" data-name="Group 177" transform="translate(17.736 39.907)">
    <g id="Group_176" data-name="Group 176" transform="translate(0)">
      <path id="Path_356" data-name="Path 356" d="M190.431,307.841h-5.543a1.039,1.039,0,1,0,0,2.079h5.543a1.039,1.039,0,1,0,0-2.079Z" transform="translate(-183.849 -307.841)" fill="rgba(255,255,255,0.51)"/>
    </g>
  </g>
  <g id="Group_179" data-name="Group 179" transform="translate(17.736 35.473)">
    <g id="Group_178" data-name="Group 178" transform="translate(0)">
      <path id="Path_357" data-name="Path 357" d="M192.648,273.637h-7.76a1.039,1.039,0,1,0,0,2.078h7.76a1.039,1.039,0,1,0,0-2.078Z" transform="translate(-183.849 -273.637)" fill="rgba(255,255,255,0.51)"/>
    </g>
  </g>
  <g id="Group_181" data-name="Group 181" transform="translate(17.736 15.519)">
    <g id="Group_180" data-name="Group 180" transform="translate(0)">
      <path id="Path_358" data-name="Path 358" d="M202.625,119.716H184.888a1.039,1.039,0,0,0,0,2.079h17.736a1.039,1.039,0,0,0,0-2.079Z" transform="translate(-183.849 -119.716)" fill="rgba(255,255,255,0.51)"/>
    </g>
  </g>
  <g id="Group_183" data-name="Group 183" transform="translate(17.736 11.085)">
    <g id="Group_182" data-name="Group 182" transform="translate(0)">
      <path id="Path_359" data-name="Path 359" d="M198.191,85.511h-13.3a1.039,1.039,0,0,0,0,2.079h13.3a1.039,1.039,0,0,0,0-2.079Z" transform="translate(-183.849 -85.511)" fill="rgba(255,255,255,0.51)"/>
    </g>
  </g>
  <g id="Group_185" data-name="Group 185" transform="translate(6.651 34.364)">
    <g id="Group_184" data-name="Group 184" transform="translate(0)">
      <path id="Path_360" data-name="Path 360" d="M106.029,268.411a1.039,1.039,0,0,0-1.039,1.039,2.286,2.286,0,1,1-2.286-2.286,1.039,1.039,0,1,0,0-2.079,4.365,4.365,0,1,0,4.365,4.365A1.039,1.039,0,0,0,106.029,268.411Z" transform="translate(-98.338 -265.085)" fill="rgba(255,255,255,0.51)"/>
    </g>
  </g>
  <g id="Group_187" data-name="Group 187" transform="translate(0)">
    <g id="Group_186" data-name="Group 186" transform="translate(0)">
      <path id="Path_361" data-name="Path 361" d="M87.977,0H50.287a3.26,3.26,0,0,0-3.256,3.256V49.815a3.26,3.26,0,0,0,3.256,3.256H69.132a1.039,1.039,0,1,0,0-2.079H50.287a1.179,1.179,0,0,1-1.178-1.178V3.256a1.179,1.179,0,0,1,1.178-1.178h37.69a1.179,1.179,0,0,1,1.178,1.178V37.621a1.039,1.039,0,0,0,2.079,0V3.256A3.26,3.26,0,0,0,87.977,0Z" transform="translate(-47.031)" fill="rgba(255,255,255,0.51)"/>
    </g>
  </g>
  <g id="Group_189" data-name="Group 189" transform="translate(24.945 23.28)">
    <g id="Group_188" data-name="Group 188">
      <path id="Path_362" data-name="Path 362" d="M265.265,198.442a3.834,3.834,0,0,0-2.7.758,3.785,3.785,0,0,0-2.847-1.866,3.835,3.835,0,0,0-2.7.758,3.785,3.785,0,0,0-2.847-1.866,3.839,3.839,0,0,0-2.121.4V183.388a3.811,3.811,0,0,0-4.2-3.791,3.932,3.932,0,0,0-3.421,3.949v13.268l-3.055,3.055a6.541,6.541,0,0,0-1.753,6.162l2.319,9.857a8.765,8.765,0,0,0,8.565,6.784h9.374a8.809,8.809,0,0,0,8.8-8.8V202.392A3.932,3.932,0,0,0,265.265,198.442Zm1.343,15.431a6.728,6.728,0,0,1-6.72,6.72h-9.374a6.7,6.7,0,0,1-6.542-5.181l-2.319-9.857a4.475,4.475,0,0,1,1.2-4.216l1.585-1.585v3.588a1.039,1.039,0,0,0,2.079,0v-19.8a1.837,1.837,0,0,1,1.55-1.881,1.733,1.733,0,0,1,1.914,1.723v18.291a1.039,1.039,0,0,0,2.079,0v-1.663a1.733,1.733,0,0,1,1.914-1.723,1.838,1.838,0,0,1,1.55,1.881v2.613a1.039,1.039,0,1,0,2.079,0v-1.663a1.733,1.733,0,0,1,1.914-1.723,1.838,1.838,0,0,1,1.55,1.881V203.9a1.039,1.039,0,1,0,2.079,0v-1.663a1.733,1.733,0,0,1,1.914-1.723,1.838,1.838,0,0,1,1.55,1.881v11.482Z" transform="translate(-239.452 -179.578)" fill="rgba(255,255,255,0.51)"/>
    </g>
  </g>
</svg>
