<svg xmlns="http://www.w3.org/2000/svg" width="62.102" height="64.107" viewBox="0 0 62.102 64.107">
  <path id="Path_301" data-name="Path 301" d="M68.056,37.55H67.1V28.908a4.057,4.057,0,0,0-1.721-3.315V24.417a3.1,3.1,0,0,0-3.1-3.1h-.716L64.305,17.3a2.962,2.962,0,0,0-.779-4.111L44.929.515a2.959,2.959,0,0,0-4.111.779L24.766,24.849H20.3l1.078-10.909a.324.324,0,0,1,.2-.271,6.945,6.945,0,0,0,3.388-2.753.321.321,0,0,1,.3-.142l7.006.692a.913.913,0,0,0,.18-1.818l-7.006-.692a2.138,2.138,0,0,0-2.025.98,5.105,5.105,0,0,1-2.491,2.024,2.135,2.135,0,0,0-1.377,1.8l-1.1,11.089H17.3L19,7.594A1.132,1.132,0,0,1,20.24,6.579L34.4,7.978a.913.913,0,1,0,.18-1.818L20.42,4.761a2.962,2.962,0,0,0-3.235,2.653L15.811,21.321h-2.34a3.1,3.1,0,0,0-3.1,3.1v.8a4.065,4.065,0,0,0-2.368,3.689V60.047a4.065,4.065,0,0,0,4.06,4.06H63.037a4.065,4.065,0,0,0,4.06-4.06V51.406h.959a2.056,2.056,0,0,0,2.054-2.053V39.6A2.056,2.056,0,0,0,68.056,37.55Zm-5.775-14.4h0a1.269,1.269,0,0,1,1.268,1.268v.465a4.072,4.072,0,0,0-.512-.033H59.161l1.159-1.7ZM42.328,2.322a1.125,1.125,0,0,1,.725-.475,1.148,1.148,0,0,1,.213-.02,1.124,1.124,0,0,1,.635.2L62.5,14.7a1.133,1.133,0,0,1,.3,1.573L56.95,24.848h-1.4l2.866-4.205a2.135,2.135,0,0,0,.1-2.265,5.105,5.105,0,0,1-.612-3.151,2.136,2.136,0,0,0-.924-2.05l-9.641-6.57A2.136,2.136,0,0,0,45.09,6.5a5.106,5.106,0,0,1-3.156.583A2.162,2.162,0,0,0,39.861,8L28.38,24.848h-1.4Zm.4,15.512a7.538,7.538,0,0,0-7.51,7.014H30.59L41.371,9.029h0a.326.326,0,0,1,.267-.144l.042,0A6.945,6.945,0,0,0,45.972,8.1a.322.322,0,0,1,.335.02l9.641,6.57a.323.323,0,0,1,.141.3,6.943,6.943,0,0,0,.832,4.285.324.324,0,0,1-.018.339l-3.567,5.234h-3.1A7.538,7.538,0,0,0,42.73,17.835Zm5.678,7.014H37.052a5.7,5.7,0,0,1,11.356,0Zm-36.2-.432a1.27,1.27,0,0,1,1.268-1.268h2.159l-.168,1.7H12.2ZM9.835,28.908a2.236,2.236,0,0,1,2.233-2.233H63.037a2.236,2.236,0,0,1,2.233,2.233v2.535H9.835ZM65.27,60.047a2.236,2.236,0,0,1-2.233,2.233H12.068a2.236,2.236,0,0,1-2.233-2.233V57.513h4.926a.913.913,0,1,0,0-1.827H9.835V33.27H65.27v4.28H56.584a6.936,6.936,0,0,0-6.232,3.9l-.012.023c-.01.02-.018.04-.027.06a6.886,6.886,0,0,0-.345.883v0a6.93,6.93,0,0,0,6.617,8.984H65.27v4.28H20.61a.913.913,0,1,0,0,1.827H65.27Zm3.013-10.695a.227.227,0,0,1-.227.227H56.585A5.106,5.106,0,0,1,52.1,46.908q-.059-.108-.113-.22-.108-.223-.194-.458a5.107,5.107,0,0,1,0-3.5q.086-.234.194-.458.054-.111.113-.22a5.106,5.106,0,0,1,4.485-2.672H68.056a.227.227,0,0,1,.227.227Z" transform="translate(-8.008 0)" fill="rgba(255,255,255,0.44)"/>
</svg>
