<svg width="64" height="64" viewBox="0 0 64 64" fill="none" xmlns="http://www.w3.org/2000/svg">
<g clip-path="url(#clip0)">
<path d="M28.941 31.786L0.612997 60.114C-0.174003 60.901 -0.174003 62.176 0.612997 62.963C1.006 63.357 1.522 63.553 2.037 63.553C2.553 63.553 3.068 63.357 3.461 62.963L32.002 34.422L60.543 62.963C60.937 63.357 61.452 63.553 61.967 63.553C62.482 63.553 62.998 63.357 63.391 62.963C64.178 62.176 64.178 60.901 63.391 60.114L35.064 31.786L63.41 3.43801C64.197 2.65101 64.197 1.37601 63.41 0.589012C62.623 -0.196988 61.348 -0.196988 60.562 0.589012L32.003 29.15L3.441 0.590012C2.654 -0.195988 1.38 -0.195988 0.592997 0.590012C-0.194003 1.37701 -0.194003 2.65201 0.592997 3.43901L28.941 31.786Z" fill="white"/>
</g>
<defs>
<clipPath id="clip0">
<rect width="64" height="64" fill="white"/>
</clipPath>
</defs>
</svg>
