<svg xmlns="http://www.w3.org/2000/svg" width="85" height="85.695" viewBox="0 0 85 85.695">
  <g id="rocket" transform="translate(-7.5 -7.152)">
    <g id="Group_9" data-name="Group 9">
      <g id="Group_8" data-name="Group 8">
        <g id="Group_1" data-name="Group 1">
          <path id="Path_1" data-name="Path 1" d="M37.328,76.238,24.11,63.019a1.857,1.857,0,0,1,.768-3.088l6.991-2.145L42.562,68.479,40.417,75.47A1.858,1.858,0,0,1,37.328,76.238Z" fill="#f47e60"/>
        </g>
        <g id="Group_2" data-name="Group 2">
          <path id="Path_2" data-name="Path 2" d="M52.584,92.847h0c7.624-6.472,4.221-13.342-.219-19.324a6.576,6.576,0,0,1-.111-7.694l6.924-9.889a5.411,5.411,0,0,1,9.408.981C74.157,70,72.641,87.067,52.584,92.847Z" fill="#5b5fe1"/>
        </g>
        <g id="Group_3" data-name="Group 3">
          <path id="Path_3" data-name="Path 3" d="M7.5,47.763h0c6.472-7.624,13.342-4.221,19.324.219a6.576,6.576,0,0,0,7.694.111l9.889-6.924a5.411,5.411,0,0,0-.981-9.408C30.353,26.19,13.281,27.707,7.5,47.763Z" fill="#5b5fe1"/>
        </g>
        <g id="Group_4" data-name="Group 4">
          <path id="Path_4" data-name="Path 4" d="M76.207,56.9c-10.6,10.6-24.129,15.114-33.839,12.211L31.243,57.984c-2.906-9.71,1.611-23.244,12.21-33.843C62.034,5.56,86.491,5.242,90.4,9.151S94.375,38.727,76.207,56.9Z" fill="#e0e0e0"/>
        </g>
        <g id="Group_5" data-name="Group 5">
          <circle id="Ellipse_1" data-name="Ellipse 1" cx="8.431" cy="8.431" r="8.431" transform="translate(57.584 30.841) rotate(-45)" fill="#5b5fe1"/>
        </g>
        <g id="Group_6" data-name="Group 6">
          <path id="Path_5" data-name="Path 5" d="M90.4,9.151c-1.972-1.972-9.18-2.864-18.223-.88l19.4,19.405C93.348,18.5,92.354,11.1,90.4,9.151Z" fill="#f47e60"/>
        </g>
        <g id="Group_7" data-name="Group 7">
          <path id="Path_6" data-name="Path 6" d="M26.51,87.355l7.413-14.523-3.2-3.2-.111-.112-3.2-3.2L12.881,73.727l6.4,1.179-6.4,12.339-.352.351.232-.12-.12.231.351-.351,12.338-6.4Z" fill="#5b5fe1"/>
        </g>
      </g>
    </g>
  </g>
</svg>
