<svg width="100" height="100" viewBox="0 0 100 100" fill="none" xmlns="http://www.w3.org/2000/svg">
<path d="M94.3125 42.6068C92.7735 41.472 90.8344 40.0547 90.5996 39.1286C90.6982 37.336 91.2102 35.5908 92.0952 34.0289C93.4517 30.9159 94.8516 27.6901 93.2952 25.0075C91.7388 22.325 88.1997 21.8903 84.7956 21.5294C83.0311 21.5176 81.2928 21.1026 79.7131 20.3164C78.9257 18.7313 78.5122 16.9866 78.5044 15.2167C78.1219 11.8125 77.7262 8.29094 75.0263 6.71704C72.3264 5.14314 69.0961 6.5214 65.9833 7.89518C64.4198 8.77985 62.6731 9.29157 60.8793 9.39082C59.9403 9.13873 58.5273 7.21695 57.4012 5.6779C55.4274 3.01717 53.2057 0 49.9972 0C46.7886 0 44.5671 3.01717 42.6062 5.6779C41.4672 7.22123 40.054 9.15605 39.128 9.3951C37.3358 9.28709 35.591 8.77597 34.024 7.89946C30.8937 6.5212 27.6679 5.14742 24.9941 6.69524C22.3203 8.24305 21.8726 11.7907 21.4899 15.2165C21.4774 16.9803 21.0641 18.7183 20.2812 20.2989C18.7046 21.0739 16.973 21.4811 15.2163 21.4901C11.8078 21.8726 8.28177 22.2683 6.71236 24.9682C5.14294 27.6681 6.5214 30.8943 7.89518 34.0116C8.78311 35.5785 9.29504 37.3301 9.39082 39.1286C9.13873 40.0677 7.21695 41.4851 5.6779 42.6068C3.01717 44.5632 0 46.7892 0 49.9978C0 53.2063 3.01717 55.4323 5.68238 57.3888C7.22143 58.5235 9.16053 59.9409 9.3953 60.8669C9.29667 62.6595 8.78474 64.4048 7.89966 65.9666C6.54321 69.0796 5.14335 72.3054 6.69972 74.988C8.2561 77.6705 11.7952 78.1052 15.1994 78.4661C16.9638 78.4779 18.7022 78.8929 20.2818 79.6791C21.0692 81.2642 21.4827 83.0089 21.4905 84.7788C21.873 88.183 22.2688 91.7046 24.9686 93.2785C27.6685 94.8524 30.8727 93.435 33.99 92.0785C35.5692 91.2037 37.3261 90.6982 39.1288 90.6004C40.0679 90.8525 41.4808 92.7743 42.607 94.3133C44.5677 96.9741 46.7894 99.9912 49.998 99.9912C53.2065 99.9912 55.4281 96.9741 57.389 94.3133C58.528 92.77 59.9411 90.8352 60.8671 90.5961C62.6605 90.6976 64.4066 91.2092 65.9711 92.0918C69.0841 93.4482 72.3099 94.8395 74.988 93.296C77.666 91.7527 78.1095 88.2005 78.4922 84.7921C78.5046 83.0283 78.9179 81.2903 79.7009 79.7097C81.2803 78.9283 83.0168 78.5165 84.7788 78.5055C88.1873 78.1229 91.7133 77.7272 93.2828 75.0273C94.8522 72.3275 93.435 69.1232 92.0828 66.006C91.1977 64.4311 90.6917 62.6715 90.6047 60.8671C90.8568 59.928 92.7786 58.5106 94.3176 57.389C96.9784 55.4283 100 53.2022 100 49.998C100 46.7937 96.9775 44.5632 94.3125 42.6068Z" fill="#FFC107"/>
</svg>
