<svg xmlns="http://www.w3.org/2000/svg" width="62.344" height="59.74" viewBox="0 0 62.344 59.74">
  <path id="Path_370" data-name="Path 370" d="M40.086,50.242V49.156a11.311,11.311,0,0,0,.885-.8,16.13,16.13,0,0,0,4.083-8.991,7.929,7.929,0,0,0,5.121-3.044c1.711-2.419,1.864-5.9.437-10.265a1.18,1.18,0,0,0-.472-.614L49.49,25A16,16,0,0,0,45.667,14.23c-3.174-3.575-8.047-5.381-14.5-5.4-6.442,0-11.327,1.829-14.5,5.357a16,16,0,0,0-3.823,10.773l-.649.437a1.18,1.18,0,0,0-.472.614c-1.428,4.389-1.274,7.847.437,10.265a7.952,7.952,0,0,0,5.121,3.08,16.142,16.142,0,0,0,4.094,9,11.511,11.511,0,0,0,.885.8v1.086C17.738,51.115-.3,55.351,0,67.387a1.18,1.18,0,0,0,1.18,1.18H61.16a1.18,1.18,0,0,0,1.18-1.18C62.647,55.351,44.605,51.115,40.086,50.242ZM16.57,36.72a5.121,5.121,0,0,1-2.5-1.829l.059.012c-1.18-1.723-1.286-4.33-.236-7.776l.861-.578a1.18,1.18,0,0,0,.519-1.1,13.947,13.947,0,0,1,3.209-9.711c2.667-3.021,6.95-4.531,12.684-4.555S41.184,12.72,43.9,15.74a13.947,13.947,0,0,1,3.209,9.711,1.18,1.18,0,0,0,.519,1.1l.861.578c1.05,3.434.979,6.053-.236,7.776a5.145,5.145,0,0,1-2.513,1.829,7.858,7.858,0,0,0,1.923-5.9,5.522,5.522,0,0,0-1.9-3.3c-.507-11.8-8.779-13.121-12.342-13.121a14.874,14.874,0,0,0-2.254.165,14.853,14.853,0,0,0-2.254-.165c-3.54,0-11.8,1.3-12.342,13.121a5.522,5.522,0,0,0-1.923,3.292A7.847,7.847,0,0,0,16.57,36.72Zm26.844-9.676a24.308,24.308,0,0,1-14.1-3.54,1.18,1.18,0,0,0-1.534.153c-2.36,2.537-6.667,3.127-8.743,3.257.637-8.342,5.687-10.159,9.935-10.159a11.406,11.406,0,0,1,2.018.165,1.177,1.177,0,0,0,.472,0,11.462,11.462,0,0,1,2.018-.165c4.212,0,9.286,1.864,9.876,10.277Zm-23.965,9.9.047.012a1.18,1.18,0,0,0-.295-.791c-1.617-1.853-2.36-3.54-2.159-4.932a3.127,3.127,0,0,1,1.074-1.994c1.558,0,7.08-.295,10.619-3.351a26.607,26.607,0,0,0,13.1,3.54,15.559,15.559,0,0,0,2.431-.13,3.115,3.115,0,0,1,1.062,1.935c.2,1.369-.543,3.08-2.159,4.932a1.179,1.179,0,0,0-.295.791v.614L36,41.251a3.4,3.4,0,1,0,1.062,2.466q.008-.159,0-.319l5.416-2.9a12.98,12.98,0,0,1-3.162,6.23A10.513,10.513,0,0,1,31.5,49.652h-.59A10.537,10.537,0,0,1,23.1,46.738C19.366,43.021,19.449,37,19.449,36.944Zm15.257,6.773a1.05,1.05,0,1,1-1.05-1.05A1.05,1.05,0,0,1,34.706,43.717Zm-4.72,22.419H2.4c.932-8.861,15.339-12.566,19.847-13.522v2.112c0,2.678,3.257,4.72,7.74,5.062Zm-5.381-11.41V50.655a14.266,14.266,0,0,0,6.265,1.322h.59a14.266,14.266,0,0,0,6.265-1.322v4.071c0,1.121-2.56,2.737-6.56,2.737S24.605,55.847,24.605,54.726Zm7.74,11.445v-6.4c4.484-.307,7.74-2.36,7.74-5.062V52.649c4.543.944,18.879,4.649,19.847,13.522H32.346Z" transform="translate(0 -8.826)" fill="rgba(255,255,255,0.49)"/>
</svg>
