<?xml version="1.0" encoding="utf-8"?>
<!-- Generator: Adobe Illustrator 21.0.0, SVG Export Plug-In . SVG Version: 6.00 Build 0)  -->
<svg version="1.1" id="Layer_1" xmlns="http://www.w3.org/2000/svg" xmlns:xlink="http://www.w3.org/1999/xlink" x="0px" y="0px"
	 viewBox="0 0 548 255" style="enable-background:new 0 0 548 255;" xml:space="preserve">
<style type="text/css">
	.st0{fill:url(#SVGID_1_);}
	.st1{fill:#D41C58;}
	.st2{fill:none;}
	.st3{fill:#282F6C;}
	.st4{fill:url(#SVGID_2_);}
	.st5{fill:#FFFFFF;}
</style>
<g>
	<g>
		
			<linearGradient id="SVGID_1_" gradientUnits="userSpaceOnUse" x1="50.9016" y1="2564.9189" x2="58.1576" y2="2496.3489" gradientTransform="matrix(1 0 0 1 0 -2377.2759)">
			<stop  offset="0" style="stop-color:#102B4E"/>
			<stop  offset="1" style="stop-color:#D41C58"/>
		</linearGradient>
		<path class="st0" d="M8.5,182.1L97,219.7c4.4,1.9,9.3-1.3,9.2-6.1L106,117c0-2.6-1.6-5.1-4-6L13.5,73.4c-4.4-1.9-9.3,1.3-9.2,6.1
			l0.2,96.7C4.4,178.7,6,181.1,8.5,182.1z"/>
	</g>
	<g>
		<path class="st1" d="M7.2,181.6l88.5,37.6c4.4,1.9,9.3-1.3,9.2-6.1l-0.2-96.7c0-2.6-1.6-5.1-4-6L12.2,72.8
			c-4.4-1.9-9.3,1.3-9.2,6.1l0.2,96.7C3.1,178.2,4.7,180.6,7.2,181.6z"/>
	</g>
	<path class="st2" d="M164.2,156.7c-0.1,0.1-0.2,0.1-0.2,0.2C164.2,156.8,164.2,156.7,164.2,156.7z"/>
	<path class="st3" d="M176.9,141.3c9.7-12.3,12.4-29.8,13.1-42.6c-15.4,24.6-38,43.2-62.7,64.5c-18.6,16.4-14.8,26.8-13.9,40
		c3-11.9,9-20.9,20.7-28.4c12-7.7,20.2-12.1,27.3-16.6C166.2,153.9,171.2,148.5,176.9,141.3z"/>
	<path class="st1" d="M168.7,153.6c0.1-0.1,0.2-0.1,0.2-0.2c5.5-4.2,11.1-9.3,18.3-17.6c15.4-17.7,13.3-47.7,12.7-54.2
		c-2.5,5.7-5.3,11.2-8.7,16.6c-0.6,12.9-3.3,30.9-13.2,43.5c-4.6,5.8-8.7,10.4-12.8,14.3l-0.1,0.1c1.1-0.7,2.1-1.5,3.2-2.3
		C168.4,153.9,168.6,153.7,168.7,153.6z"/>
	<path class="st1" d="M188.3,168.2c13.5-11.6,12.4-31.3,11.9-36c-2.4,4-5.2,7.8-8.7,11.6c-0.1,8-1.6,19.1-7.9,28.2
		C185.1,170.8,186.6,169.5,188.3,168.2z"/>
	<path class="st3" d="M190.2,144c-14.7,15.6-36.7,26.9-58.2,40.9c-16.4,10.9-17.4,22.6-16.9,31.5c2.9-7.9,12.6-18.3,22.8-23.3
		c19.9-9.6,30.4-11,43.2-19.8C188.4,164.2,190.1,152.4,190.2,144z"/>
	<path class="st1" d="M193.1,172.9c-2.5,2.5-5.5,4.7-9.3,7c-1.1,6.8-3.2,13.1-6.3,18.6C186.5,193.1,191.6,184.8,193.1,172.9z"/>
	<path class="st3" d="M182.5,180.1c-7.8,4.5-19,8.7-36.9,13.6c-19,4.5-26.3,19.6-26.3,19.6c23.7-17,34-7,48.6-11.3
		c3-1,5.7-2.2,8.2-3.7C179.3,193.1,181.4,186.8,182.5,180.1z"/>
	<g>
		
			<linearGradient id="SVGID_2_" gradientUnits="userSpaceOnUse" x1="71.7341" y1="2529.3518" x2="257.1163" y2="2529.3518" gradientTransform="matrix(0.9994 3.509327e-02 -3.509327e-02 0.9994 31.6784 -2462.9482)">
			<stop  offset="0" style="stop-color:#102B4E"/>
			<stop  offset="1" style="stop-color:#D41C58"/>
		</linearGradient>
		<path class="st4" d="M198.1,72.8c-17.7,6.5-61.5,22.8-85,31.5c-2.7,1-5.6,1-8.3-0.2c-15.2-6.3-68.3-28.2-88.3-36.5
			c-2.5-1.1-2.4-4.7,0.3-5.5c20.2-6,72.3-21.3,87-25.6c1.1-0.3,2.4-0.3,3.5,0.1c10.9,3.7,69.4,23.4,90.8,30.6
			C200.6,68.1,200.7,71.8,198.1,72.8z"/>
	</g>
	<g>
		<path class="st1" d="M198.2,71.3c-17.7,6.5-61.5,22.8-85,31.5c-2.7,1-5.6,1-8.3-0.2c-15.2-6.3-68.3-28.2-88.3-36.5
			c-2.5-1.1-2.4-4.7,0.3-5.5c20.2-6,72.3-21.3,87-25.6c1.1-0.3,2.4-0.3,3.5,0.1c10.9,3.7,69.4,23.4,90.8,30.6
			C200.7,66.6,200.7,70.3,198.2,71.3z"/>
	</g>
	<path class="st5" d="M71.1,103c-2.4,4.3-5.5,10.5-9.2,18.6c-3.6,7.9-7,15.9-10.3,23.9l-8.9-19l-9.9-22L20.1,75.9l-7.9-3.6
		c-0.7-0.3-1.6,0-2.3-0.1c1.9,3.6,4.1,7.8,6.6,12.7C22.2,96,26.6,104.8,29.4,111c2.9,6.2,6.5,14.1,10.8,23.5
		c4.3,9.6,6.8,15.2,7.2,16.9c0.5,1.7,0.8,3.7,1,5.8l1.1,13.9l1.1,14.1c0.4,5.5,0.5,9.2,0.4,11.2c-0.1,1.9-0.3,3.1-0.7,3.5l17,7.2
		c-0.1-0.4-0.2-0.8-0.3-1.3c-0.4-1.9-0.9-5.6-1.4-11l-1.5-16.4l-1.4-18.1c0.9-2.9,4-9.3,9.5-19.3l5.9-10.5c1.9-3.4,4.3-7.3,7.3-11.6
		c2.9-4.4,5.3-7.2,7-8.5c1.6-1.1,3-1.9,4-1.9L73.9,98.3C73.1,99.3,71.9,101.5,71.1,103z"/>
</g>
<g>
	<path class="st1" d="M315.9,116.6H312c-3.3,0-6.5-1.9-9.4-5.5c-1.6,1.9-2.6,2.9-2.7,3.3c-1.3,1.1-2.7,1.6-4.6,1.6
		c-3.6,0-6.6-1.6-8.5-4.8c-1.9,3.2-3.6,4.8-6,4.8c-2.6,0-4.6-0.6-6.2-1.6c0,18.1-9.9,27.1-29.9,27.1c-8.2,0-14.7-1.6-19.3-4.8
		c-5.6-3.6-8.5-9.5-8.5-17.3c0-3.6,0.7-8.1,2.4-13.4c1.9-6,3.9-8.9,6-8.9c1.4,0,2.2,0.6,2.7,1.9c0.2,0.6,0.4,1.9,0.4,3.6
		c0,0.9-0.2,2.2-0.6,4c-0.4,1.8-0.6,3.2-0.6,4c0,6.5,6.6,9.8,19.6,9.8c3.9,0,7.5-0.4,11-1.3c5.2-1.3,7.6-3.3,7.6-6.2
		c0-2.4-3.3-6.2-9.9-11.5l7.6-15c0.4-0.6,0.6-0.9,0.7-0.9c0.2,0,0.6,0.4,1.1,0.9c3.3,3.3,5.6,5.3,6.9,6.5c2.2,1.4,4.3,2.2,6.6,2.2
		c2.2,0,3.6-0.9,4.3-2.7c0.2-0.9,0.7-2.6,1.3-5.2c0.6-1.9,1.6-2.7,3.3-2.7c1.4,0,2.4,0.9,2.7,2.7l0.9,5.2c0.6,1.9,2,2.7,4,2.7
		s3.3-0.9,4-2.7l1.1-4.8c0.7-2,1.6-3.2,3.2-3.2c1.3,0,2.2,0.9,2.9,2.9l0.9,4.6c0.7,1.6,2.2,2.6,4.2,2.6h3.9v22.2L315.9,116.6
		L315.9,116.6z"/>
	<path class="st1" d="M358.8,45.3l-1.6,16.1c0,0.7-0.2,1.1-0.2,1.1c-0.2,0.2-0.6,0.4-0.9,0.6l-20.3,6.5c3.3,4,5.6,7.3,6.9,10.2
		c1.9,4,2.9,8.5,2.9,13.4c0,9.9-3.5,16.7-10.5,20.6c-3.6,2-8.1,2.9-13.2,2.9H313V94.3h4.6c6.8,0,11.4-0.4,13.8-0.9
		c1.1-0.2,1.4-0.7,1.4-1.6c0-0.6-0.2-1.1-0.6-1.6c-1.9-2.6-4.2-5.3-7.5-8.1c-1.6-1.4-4.6-4-8.8-7.9l2.7-16c0.2-0.7,0.6-1.1,1.1-1.4
		L357.6,44c0.4-0.2,0.6-0.2,0.6-0.2C358.8,44.2,358.8,44.6,358.8,45.3z"/>
	<path class="st1" d="M390.2,116.6h-5.3c-12.2,0-18.5-6.5-18.5-19.3c0-5.5-0.2-12.7-0.6-21.6c-0.4-9.4-0.9-15.6-1.3-18.7
		c-0.2-1.4,0-2.6,0.7-3.3l14.3-10.1c0.9-0.7,1.6-1.1,2-1.1s0.6,0.4,0.6,1.1v43.6c0,4.8,2.2,7.2,6.5,7.2h1.6
		C390.2,94.4,390.2,116.6,390.2,116.6z"/>
	<path class="st1" d="M411.9,91c0,9.2-1.3,15.6-3.9,19.3c-2.9,4.3-8.6,6.6-16.7,6.6h-4V94.5h11.2c2,0,2.9-0.6,2.9-1.6
		c0-0.6-0.4-1.3-0.9-1.9c-2-2.6-4.6-5.3-7.9-8.2c-0.6-0.6-0.6-1.1,0-1.9l9.2-13.4c0.6-0.7,0.9-1.1,1.1-1.1c0.4,0,0.7,0.4,1.3,0.9
		C409.5,73.7,411.9,81.6,411.9,91z M408.3,131.1c0.6,0.4,0.6,0.9,0,1.3l-6.6,6.6c-0.6,0.6-0.9,0.6-1.4,0l-6.8-6.5
		c-0.6-0.6-0.6-1.1,0.2-1.9l6.2-6.2c0.6-0.6,1.1-0.6,1.6,0L408.3,131.1z"/>
	<path class="st1" d="M456,112.6c0,12.2-3.3,21.9-9.8,28.6c-0.7,0.7-1.9,1.1-2.9,1.1h-23c-2.7,0-4-1.1-4-3.3c0-1.3,0.6-2,1.6-2.7
		c4.3-2,9.8-5.3,16.1-9.8c8.2-5.6,12.5-9.8,12.5-12.1c0-2-3.6-6.5-11-13.4l7.9-16.3c0.6-0.9,1.1-1.1,1.9-0.4c4,3.6,6.8,7.3,8.5,11
		C455.2,100.2,456,105.6,456,112.6z"/>
	<path class="st1" d="M487.9,116.6h-5.3c-12.2,0-18.5-6.5-18.5-19.3c0-5.5-0.2-12.7-0.6-21.6c-0.4-9.4-0.9-15.6-1.3-18.7
		c-0.2-1.4,0-2.6,0.7-3.3l14.3-10.1c0.9-0.7,1.6-1.1,2-1.1s0.6,0.4,0.6,1.1v43.6c0,4.8,2.2,7.2,6.5,7.2h1.6L487.9,116.6L487.9,116.6
		z"/>
	<path class="st1" d="M517.7,116.7h-32.6V94.4h32.6V116.7L517.7,116.7z"/>
	<path class="st1" d="M538.9,91c0,9.2-1.3,15.6-3.9,19.3c-2.9,4.3-8.6,6.6-16.7,6.6h-3.9V94.5h11.2c2,0,2.9-0.6,2.9-1.6
		c0-0.6-0.4-1.3-0.9-1.9c-2-2.6-4.6-5.3-7.9-8.2c-0.6-0.6-0.6-1.1,0-1.9l9.2-13.4c0.6-0.7,0.9-1.1,1.1-1.1c0.4,0,0.7,0.4,1.3,0.9
		C536.4,73.7,538.9,81.6,538.9,91z M538.6,131.3c0.6,0.4,0.4,0.7,0,1.3l-5.9,5.6c-0.4,0.4-0.9,0.4-1.3,0l-5.5-5.3l-5.5,5.3
		c-0.4,0.4-0.9,0.4-1.3,0l-5.9-5.6c-0.6-0.6-0.4-0.9,0.2-1.6l5.3-5.5c0.6-0.6,0.9-0.6,1.4,0l5.5,5.3l5.2-5.3c0.6-0.6,1.1-0.6,1.4,0
		L538.6,131.3z"/>
</g>
<g>
	<path class="st3" d="M217.1,154.9h20.5l12.1,20.2l12-20.2h20.5l-23.5,35V215h-18.5v-25.1L217.1,154.9z"/>
	<path class="st3" d="M274.9,183.9c0.6-2.8,1.5-5,2.6-6.6c1.1-1.6,2.8-3.1,4.9-4.3c1.5-0.9,3.6-1.5,6.3-1.9c2.6-0.5,5.6-0.7,8.6-0.7
		c5,0,9.1,0.3,12,0.9c3.1,0.6,5.6,1.8,7.6,3.5c1.4,1.1,2.5,2.9,3.2,5.3c0.9,2.2,1.1,4.4,1.1,6.6v19.1c0,2,0.1,3.6,0.5,4.9
		c0.3,1.1,0.9,2.6,1.8,4.4h-15.6c-0.6-1-1-1.9-1.1-2.5c-0.1-0.6-0.5-1.5-0.6-2.8c-2.2,2-4.4,3.6-6.5,4.5c-2.9,1.1-6.5,1.9-10.3,1.9
		c-5.3,0-9.2-1.1-11.9-3.6c-2.6-2.5-4-5.4-4-8.9c0-3.2,1-6,2.9-8.2c1.9-2,5.6-3.6,10.6-4.6c6.3-1.4,10.4-2.2,12.1-2.6
		c1.9-0.5,3.9-1.1,5.9-2c0-2-0.5-3.5-1.4-4.3c-0.9-0.9-2.4-1.4-4.4-1.4c-2.8,0-4.9,0.5-6.1,1.4c-1,0.7-1.9,2-2.6,4L274.9,183.9z
		 M305.4,194.3c-2.4,0.9-4.6,1.6-7.1,2.2c-3.4,0.9-5.6,1.9-6.5,2.8c-0.9,0.9-1.4,1.9-1.4,3.1c0,1.4,0.5,2.4,1.4,3.2
		c0.9,0.8,2.2,1.1,4.1,1.1c1.9,0,3.5-0.5,5.1-1.4c1.6-0.9,2.8-2,3.4-3.2c0.7-1.4,1-2.9,1-5V194.3z"/>
	<path class="st3" d="M331.3,171.4h15.6v7.1c1.5-3.1,3.1-5.3,4.6-6.5c1.6-1.1,3.5-1.8,5.9-1.8c2.5,0,5.1,0.7,8,2.4l-5.1,11.9
		c-1.9-0.9-3.5-1.4-4.6-1.4c-2.2,0-4,0.9-5.1,2.8c-1.8,2.5-2.6,7.4-2.6,14.4V215h-16.7v-43.6H331.3z"/>
	<path class="st1" d="M373.2,154.9h34.9c5.7,0,10.3,1.5,13.4,4.3c3.1,2.9,4.6,6.5,4.6,10.6c0,3.5-1.1,6.6-3.4,9.2
		c-1.5,1.6-3.6,3.1-6.5,4c4.3,1,7.5,2.8,9.5,5.4c2,2.5,3.1,5.7,3.1,9.5c0,3.1-0.7,5.9-2.2,8.4c-1.5,2.5-3.4,4.5-6,6
		c-1.6,0.9-4,1.5-7,1.9c-4.3,0.6-7,0.9-8.4,0.9h-32.1V154.9z M391.8,178.5h8c2.9,0,5-0.5,6.1-1.5c1.1-1,1.8-2.4,1.8-4.3
		c0-1.8-0.6-3.1-1.8-4.1c-1.1-1-3.1-1.5-6-1.5h-8.2V178.5L391.8,178.5z M391.8,202.2h9.5c3.2,0,5.4-0.6,6.7-1.8
		c1.4-1.1,1.9-2.6,1.9-4.5c0-1.8-0.6-3.2-1.9-4.3c-1.4-1-3.5-1.6-6.7-1.6h-9.5V202.2z"/>
	<path class="st1" d="M432.7,193.4c0-6.6,2.2-12.1,6.7-16.4c4.5-4.3,10.5-6.5,18.1-6.5c8.8,0,15.3,2.5,19.6,7.6
		c3.6,4.1,5.4,9.1,5.4,15.1c0,6.7-2.2,12.1-6.6,16.5c-4.4,4.3-10.5,6.5-18.5,6.5c-7,0-12.8-1.8-17-5.3
		C435.3,206.3,432.7,200.7,432.7,193.4z M449.6,193.4c0,4,0.7,6.7,2.4,8.6c1.6,1.9,3.5,2.8,6,2.8c2.4,0,4.4-0.9,5.9-2.8
		c1.5-1.9,2.4-4.9,2.4-8.9c0-3.9-0.7-6.6-2.4-8.5c-1.6-1.8-3.5-2.8-5.7-2.8c-2.5,0-4.4,0.9-6,2.8
		C450.5,186.7,449.6,189.4,449.6,193.4z"/>
	<path class="st1" d="M485.5,171.4h19.9l6.9,12.1l8-12.1h18.4l-14.8,20.8l16,22.9h-19.4l-8-14l-9.5,14h-18l15.9-22.9L485.5,171.4z"
		/>
</g>
</svg>
